<svg width="146" height="60" viewBox="0 0 146 60" fill="none" xmlns="http://www.w3.org/2000/svg">
<path d="M10.3661 19.6141C10.5117 19.6141 10.6718 19.3811 10.8466 18.9152C11.0213 18.4493 11.1086 17.998 11.1086 17.5612C11.1086 16.775 10.8611 16.3819 10.3661 16.3819C9.87109 16.3819 9.62358 16.775 9.62358 17.5612C9.62358 17.998 9.71094 18.4493 9.88565 18.9152C10.0604 19.3811 10.2205 19.6141 10.3661 19.6141ZM2.15469 30.2278C2.15469 24.7244 3.33399 20.4003 5.69259 17.2555C8.05118 14.0816 11.4289 12.4946 15.8258 12.4946C20.0771 12.4946 23.6733 13.7176 26.6142 16.1635C26.8472 16.3091 26.9636 16.5275 26.9636 16.8187C26.9636 17.0516 26.8908 17.2409 26.7453 17.3865L22.9453 22.1474C22.7706 22.3803 22.5667 22.4968 22.3338 22.4968C22.1591 22.4968 21.9553 22.424 21.7223 22.2784C20.9944 21.7543 20.179 21.3466 19.2764 21.0554C18.4028 20.7642 17.5001 20.6187 16.5683 20.6187C12.4918 20.6187 10.4535 23.8362 10.4535 30.2714C10.4535 33.3871 10.963 35.7748 11.9822 37.4346C13.0013 39.0943 14.53 39.9242 16.5683 39.9242C17.471 39.9242 18.4319 39.6767 19.4511 39.1817C20.4702 38.6576 21.3729 38.0315 22.1591 37.3035C22.392 37.0706 22.625 36.9541 22.8579 36.9541C23.0326 36.9541 23.2074 37.0415 23.3821 37.2162L28.0119 41.3219C28.3031 41.584 28.4487 41.8169 28.4487 42.0207C28.4487 42.1663 28.3759 42.341 28.2303 42.5449C26.8617 44.1464 25.0564 45.4276 22.8143 46.3885C20.6013 47.3494 18.2427 47.8299 15.7385 47.8299C12.914 47.8299 10.4826 47.1165 8.44428 45.6897C6.40599 44.2629 4.84815 42.2391 3.77077 39.6185C2.69338 36.9687 2.15469 33.8384 2.15469 30.2278ZM34.093 16.906C34.2386 16.906 34.3987 16.6731 34.5735 16.2072C34.7482 15.7413 34.8355 15.29 34.8355 14.8532C34.8355 14.067 34.588 13.6739 34.093 13.6739C33.598 13.6739 33.3505 14.067 33.3505 14.8532C33.3505 15.29 33.4378 15.7413 33.6125 16.2072C33.7873 16.6731 33.9474 16.906 34.093 16.906ZM31.2976 12.8003C31.2976 12.1597 31.6179 11.8394 32.2585 11.8394H38.1987C38.8393 11.8394 39.1596 12.1597 39.1596 12.8003V37.4783C39.1596 38.4683 39.3489 39.1526 39.7274 39.5311C40.1351 39.9096 40.7757 40.0989 41.6493 40.0989H41.955C42.5374 40.0989 42.8285 40.3901 42.8285 40.9725V46.2575C42.8285 46.8398 42.5374 47.131 41.955 47.131L40.5573 47.1747C37.5581 47.2621 35.2577 46.5632 33.6562 45.0782C32.0838 43.564 31.2976 41.4093 31.2976 38.6139V12.8003ZM47.1622 47.131C46.9001 47.131 46.6672 47.0437 46.4634 46.869C46.2886 46.6651 46.2013 46.4322 46.2013 46.1701V23.9382C46.2013 23.2976 46.5216 22.9772 47.1622 22.9772H53.1024C53.743 22.9772 54.0633 23.2976 54.0633 23.9382V46.1701C54.0633 46.4322 53.9614 46.6651 53.7575 46.869C53.5828 47.0437 53.3644 47.131 53.1024 47.131H47.1622ZM45.4588 15.9888C45.4588 14.795 45.8082 13.8049 46.507 13.0187C47.2059 12.2325 48.1813 11.8394 49.4334 11.8394C50.2196 11.8394 51.0204 12.0287 51.8357 12.4072C52.6802 12.7858 53.379 13.2954 53.9322 13.936C54.4855 14.5766 54.7621 15.2609 54.7621 15.9888C54.7621 16.7168 54.4855 17.4011 53.9322 18.0417C53.379 18.6532 52.6802 19.1482 51.8357 19.5267C51.0204 19.9052 50.2196 20.0945 49.4334 20.0945C48.1813 20.0945 47.2059 19.716 46.507 18.9589C45.8082 18.1727 45.4588 17.1827 45.4588 15.9888ZM48.2541 25.991C48.2541 26.4278 48.3415 26.8791 48.5162 27.345C48.6909 27.8109 48.8511 28.0439 48.9967 28.0439C49.1423 28.0439 49.3024 27.8109 49.4771 27.345C49.6518 26.8791 49.7392 26.4278 49.7392 25.991C49.7392 25.2048 49.4917 24.8117 48.9967 24.8117C48.5016 24.8117 48.2541 25.2048 48.2541 25.991ZM48.2978 15.29C48.2978 15.6103 48.3706 15.9306 48.5162 16.2509C48.6618 16.5712 48.822 16.7313 48.9967 16.7313C49.1714 16.7313 49.3315 16.5712 49.4771 16.2509C49.6227 15.9306 49.6955 15.6103 49.6955 15.29C49.6955 14.9988 49.6227 14.7804 49.4771 14.6348C49.3606 14.4601 49.2005 14.3727 48.9967 14.3727C48.7928 14.3727 48.6181 14.4601 48.4725 14.6348C48.3561 14.7804 48.2978 14.9988 48.2978 15.29ZM63.1254 31.014C63.271 31.014 63.4311 30.781 63.6058 30.3151C63.7805 29.8492 63.8679 29.3979 63.8679 28.9611C63.8679 28.1749 63.6204 27.7818 63.1254 27.7818C62.6304 27.7818 62.3829 28.1749 62.3829 28.9611C62.3829 29.3979 62.4702 29.8492 62.6449 30.3151C62.8196 30.781 62.9798 31.014 63.1254 31.014ZM58.2772 35.076C58.2772 31.3488 59.1798 28.3642 60.9852 26.122C62.8196 23.8799 65.4549 22.7297 68.8908 22.6715C70.7544 22.6424 72.4142 22.8608 73.8701 23.3267C75.326 23.7634 76.6946 24.4332 77.9758 25.3358C78.2379 25.5397 78.3689 25.7581 78.3689 25.991C78.3689 26.1657 78.2961 26.355 78.1505 26.5588L75.3551 30.5335C75.1804 30.8247 74.962 30.9703 74.7 30.9703C74.5835 30.9703 74.4088 30.912 74.1758 30.7956C73.5061 30.4461 72.8655 30.1841 72.254 30.0094C71.6425 29.8055 70.9 29.7036 70.0265 29.7036C68.6288 29.7036 67.566 30.1695 66.838 31.1013C66.1391 32.004 65.7897 33.2561 65.7897 34.8576C65.7897 36.5173 66.1391 37.7986 66.838 38.7012C67.566 39.5748 68.6288 40.0116 70.0265 40.0116C71.5115 40.0116 72.8655 39.6185 74.0885 38.8323C74.3214 38.6867 74.5253 38.6139 74.7 38.6139C74.9329 38.6139 75.1368 38.7158 75.3115 38.9196L79.1114 42.8069C79.3153 43.069 79.4172 43.2728 79.4172 43.4184C79.4172 43.6223 79.3007 43.8406 79.0678 44.0736C76.4471 46.2575 73.0693 47.3494 68.9345 47.3494C65.5568 47.3494 62.9361 46.2429 61.0725 44.0299C59.2089 41.8169 58.2772 38.8323 58.2772 35.076ZM83.0168 47.131C82.7548 47.131 82.5218 47.0437 82.318 46.869C82.1433 46.6651 82.0559 46.4322 82.0559 46.1701V12.8003C82.0559 12.1597 82.3762 11.8394 83.0168 11.8394H88.957C89.5976 11.8394 89.9179 12.1597 89.9179 12.8003V31.1887L99.0466 22.6715C99.2504 22.4677 99.4688 22.3658 99.7017 22.3658C99.9638 22.3658 100.197 22.4968 100.401 22.7589L104.026 26.7772C104.23 27.0393 104.332 27.2577 104.332 27.4324C104.332 27.6653 104.201 27.8983 103.938 28.1312L97.6052 33.8093L105.38 41.9771C105.584 42.2391 105.686 42.4721 105.686 42.6759C105.686 42.9089 105.569 43.1418 105.336 43.3747L101.187 47.0437C100.896 47.2766 100.663 47.3931 100.488 47.3931C100.284 47.3931 100.066 47.2621 99.8328 47L92.2765 38.6139L89.9179 40.7541V46.1701C89.9179 46.4322 89.816 46.6651 89.6122 46.869C89.4375 47.0437 89.2191 47.131 88.957 47.131H83.0168ZM84.1088 14.8532C84.1088 15.29 84.1961 15.7413 84.3708 16.2072C84.5456 16.6731 84.7057 16.906 84.8513 16.906C84.9969 16.906 85.157 16.6731 85.3318 16.2072C85.5065 15.7413 85.5938 15.29 85.5938 14.8532C85.5938 14.067 85.3463 13.6739 84.8513 13.6739C84.3563 13.6739 84.1088 14.067 84.1088 14.8532Z" fill="black"/>
<path d="M121.531 31.5226V16.9445C121.531 16.2622 121.829 15.6079 122.358 15.1254C122.888 14.643 123.606 14.3719 124.355 14.3719C125.104 14.3719 125.822 14.643 126.351 15.1254C126.881 15.6079 127.178 16.2622 127.178 16.9445V29.8075M127.178 28.95V25.5199C127.178 24.8376 127.476 24.1832 128.005 23.7008C128.535 23.2183 129.253 22.9473 130.002 22.9473C130.751 22.9473 131.469 23.2183 131.998 23.7008C132.528 24.1832 132.825 24.8376 132.825 25.5199V29.8075M132.825 27.2349C132.825 26.5526 133.123 25.8983 133.652 25.4158C134.182 24.9334 134.9 24.6623 135.649 24.6623C136.398 24.6623 137.116 24.9334 137.645 25.4158C138.175 25.8983 138.472 26.5526 138.472 27.2349V29.8075" fill="black"/>
<path d="M121.531 31.5226V16.9445C121.531 16.2622 121.829 15.6079 122.358 15.1254C122.888 14.643 123.606 14.3719 124.355 14.3719C125.104 14.3719 125.822 14.643 126.351 15.1254C126.881 15.6079 127.178 16.2622 127.178 16.9445V29.8075M127.178 28.95V25.5199C127.178 24.8376 127.476 24.1832 128.005 23.7008C128.535 23.2183 129.253 22.9473 130.002 22.9473C130.751 22.9473 131.469 23.2183 131.998 23.7008C132.528 24.1832 132.825 24.8376 132.825 25.5199V29.8075M132.825 27.2349C132.825 26.5526 133.123 25.8983 133.652 25.4158C134.182 24.9334 134.9 24.6623 135.649 24.6623C136.398 24.6623 137.116 24.9334 137.645 25.4158C138.175 25.8983 138.472 26.5526 138.472 27.2349V29.8075" stroke="#0D0D0D" stroke-width="2.04739" stroke-linecap="round" stroke-linejoin="round"/>
<path d="M138.353 29.2931C138.353 28.6108 138.65 27.9565 139.18 27.474C139.709 26.9915 140.428 26.7205 141.176 26.7205C141.925 26.7205 142.643 26.9915 143.173 27.474C143.703 27.9565 144 28.6108 144 29.2931V37.0109C144 39.7401 142.81 42.3575 140.692 44.2873C138.574 46.2171 135.701 47.3013 132.706 47.3013H128.941H129.333C127.462 47.3015 125.621 46.8786 123.974 46.0703C122.328 45.2621 120.927 44.0939 119.898 42.6706L119.529 42.1561C118.942 41.3346 116.881 38.0605 113.344 32.3322C112.983 31.7483 112.887 31.0592 113.076 30.4116C113.264 29.7639 113.722 29.2088 114.353 28.8643C115.025 28.4971 115.812 28.3449 116.589 28.4319C117.367 28.5189 118.09 28.8401 118.645 29.3445L121.412 31.8657M115.765 14.7151L113.882 13L115.765 14.7151ZM113.882 21.5753H112H113.882ZM132.706 14.7151L134.588 13L132.706 14.7151ZM134.588 19.8603H136.471H134.588Z" fill="black"/>
<path d="M138.353 29.2931C138.353 28.6108 138.65 27.9565 139.18 27.474C139.709 26.9915 140.428 26.7205 141.176 26.7205C141.925 26.7205 142.643 26.9915 143.173 27.474C143.703 27.9565 144 28.6108 144 29.2931V37.0109C144 39.7401 142.81 42.3575 140.692 44.2873C138.574 46.2171 135.701 47.3013 132.706 47.3013H128.941H129.333C127.462 47.3015 125.621 46.8786 123.974 46.0703C122.328 45.2621 120.927 44.0939 119.898 42.6706L119.529 42.1561C118.942 41.3346 116.881 38.0605 113.344 32.3322C112.983 31.7483 112.887 31.0592 113.076 30.4116C113.264 29.7639 113.722 29.2088 114.353 28.8643C115.025 28.4971 115.812 28.3449 116.589 28.4319C117.367 28.5189 118.09 28.8401 118.645 29.3445L121.412 31.8657M115.765 14.7151L113.882 13M113.882 21.5753H112M132.706 14.7151L134.588 13M134.588 19.8603H136.471" stroke="#0D0D0D" stroke-width="2.04739" stroke-linecap="round" stroke-linejoin="round"/>
<path d="M129.977 28.0372C129.185 28.3856 125.28 30.0575 124.236 30.6611C123.319 31.1914 123.218 31.5042 124.359 31.5357C125.58 31.5694 128.476 31.1688 129.521 31.0006C131.224 30.7263 133.04 30.3348 134.731 29.9357C134.841 29.9098 136.165 29.6953 136.458 29.4109C136.513 29.3577 136.467 29.316 136.429 29.2411C135.918 28.2396 134.475 27.9224 133.495 27.8726C132.805 27.8376 132.139 27.944 131.488 28.1864C130.97 28.3792 130.252 28.6212 129.82 29.0045C129.694 29.1157 129.878 29.154 129.96 29.1665C130.576 29.2604 131.289 29.1132 131.893 29.0353C132.882 28.9078 133.882 28.7611 134.842 28.4694C135.005 28.4197 135.463 28.285 135.3 28.2327C134.908 28.1069 134.219 28.2632 133.863 28.3305C131.729 28.7339 129.721 29.6381 127.739 30.5273C126.828 30.9361 125.91 31.3355 125.014 31.7801C124.984 31.7947 124.503 32.0051 124.82 31.9524C126.92 31.6032 129.02 31.1979 131.135 30.9595C131.891 30.8742 132.653 30.8191 133.411 30.7537C133.624 30.7354 133.943 30.783 134.15 30.6997C134.35 30.6191 134.376 30.4693 134.481 30.2701C134.696 29.8619 134.946 29.4209 135.408 29.3157C135.834 29.2191 136.256 29.2411 136.689 29.2411C136.972 29.2411 137.175 29.1766 137.175 29.5189" stroke="black" stroke-width="2.04739" stroke-linecap="round"/>
<path d="M123.526 31.2781C122.73 31.4661 122.159 31.6706 121.479 31.9605" stroke="black" stroke-width="2.04739" stroke-linecap="round"/>
<path d="M122.844 15.5812C122.844 16.0365 122.844 16.4897 122.844 16.9461" stroke="white" stroke-width="2.04739" stroke-linecap="round"/>
<path d="M113.972 31.2781C114.154 31.4678 114.219 31.7235 114.389 31.9097C114.516 32.0475 114.658 32.2554 114.739 32.4182C114.896 32.7364 115.215 32.9854 115.337 33.3255" stroke="white" stroke-width="2.04739" stroke-linecap="round"/>
</svg>
